<svg width="48" height="48" viewBox="0 0 48 48" fill="none" xmlns="http://www.w3.org/2000/svg">
<rect x="1" y="1" width="46" height="46" rx="11" stroke="white" stroke-opacity="0.2" stroke-width="2"/>
<path fill-rule="evenodd" clip-rule="evenodd" d="M26.08 27.59L28.67 25H19V23H28.67L26.08 20.41L27.5 19L32.5 24L27.5 29L26.08 27.59ZM31 15C32.1046 15 33 15.8954 33 17V21.67L31 19.67V17H17V31H31V28.33L33 26.33V31C33 32.1046 32.1046 33 31 33H17C15.89 33 15 32.1 15 31V17C15 15.89 15.89 15 17 15H31Z" fill="white"/>
<mask id="mask0_784_5867" style="mask-type:alpha" maskUnits="userSpaceOnUse" x="15" y="15" width="18" height="18">
<path fill-rule="evenodd" clip-rule="evenodd" d="M26.08 27.59L28.67 25H19V23H28.67L26.08 20.41L27.5 19L32.5 24L27.5 29L26.08 27.59ZM31 15C32.1046 15 33 15.8954 33 17V21.67L31 19.67V17H17V31H31V28.33L33 26.33V31C33 32.1046 32.1046 33 31 33H17C15.89 33 15 32.1 15 31V17C15 15.89 15.89 15 17 15H31Z" fill="white"/>
</mask>
<g mask="url(#mask0_784_5867)">
</g>
</svg>
