<svg width="48" height="54" viewBox="0 0 48 54" fill="none" xmlns="http://www.w3.org/2000/svg">
<path opacity="0.4" fill-rule="evenodd" clip-rule="evenodd" d="M26.3369 47.5494L26.3268 31.3489L40.2412 39.5253L26.3369 47.5494ZM23.8473 48.9098H23.9753C23.9598 48.9164 23.9397 48.923 23.91 48.923C23.8879 48.923 23.8673 48.9177 23.8473 48.9098ZM5.03499 38.0226C4.98172 37.9915 4.94856 37.9339 4.94856 37.8721L4.96176 18.7941L21.3769 28.44L21.3885 47.4902L5.03499 38.0226ZM23.8535 5.14253C23.8636 5.13675 23.8938 5.11941 23.9401 5.11941C23.9712 5.11941 24.0002 5.12717 24.0269 5.1427L40.2428 14.5308L23.8509 24.1495L7.53322 14.5608L23.8535 5.14253ZM28.7404 27.0226L42.8999 18.7139L42.8883 35.3365L28.7404 27.0226ZM45.2924 11.7314L26.5041 0.853907C25.7112 0.39499 24.8256 0.165283 23.9402 0.165283C23.0571 0.165283 22.1741 0.393503 21.3825 0.850439L2.5792 11.7015C0.993712 12.6163 0.0163923 14.3085 0.0150727 16.1404L6.23729e-05 37.8687C-0.00125721 39.7007 0.973753 41.3942 2.55775 42.3112L21.346 53.1883C22.1391 53.6477 23.0246 53.8771 23.91 53.8771C24.7931 53.8771 25.6761 53.6489 26.4677 53.1921L45.271 42.3409C46.8563 41.4261 47.8338 39.7341 47.8351 37.902L47.8503 16.1737C47.8514 14.3419 46.8764 12.6484 45.2924 11.7314Z" fill="white"/>
<path fill-rule="evenodd" clip-rule="evenodd" d="M23.91 48.923C23.888 48.923 23.8674 48.9177 23.8473 48.9098H23.9753C23.9599 48.9164 23.9396 48.923 23.91 48.923ZM23.9403 5.11941C23.9711 5.11941 24.0003 5.12717 24.0269 5.1427L30.16 8.69332L47.8482 18.8414L47.8502 16.1737C47.8514 14.3417 46.8764 12.6484 45.2924 11.7312L26.5042 0.853907C25.7112 0.394824 24.8256 0.165283 23.9403 0.165283C23.0572 0.165283 22.1742 0.393503 21.3824 0.850439L2.57913 11.7015C1.10186 12.5539 0.153568 14.0814 0.0298567 15.768L30.0271 33.5232L38.9107 38.7434L40.2412 39.5253L32.9356 43.7413V43.7557L28.2563 46.456L26.3376 47.5887L26.2827 47.5869C25.5395 47.9763 24.7251 48.1733 23.9099 48.1733C23.0245 48.1733 22.1391 47.9436 21.346 47.4845L14.2964 43.4033V43.3823L0.00198041 35.1028L1.02438e-06 37.8687C-0.00115361 39.7005 0.973857 41.394 2.55786 42.3112L21.346 53.1883C22.1391 53.6476 23.0245 53.8771 23.9099 53.8771C24.7931 53.8771 25.6762 53.6487 26.4676 53.1921L45.2709 42.3409C46.7523 41.4862 47.7023 39.9529 47.8217 38.261L42.8325 35.3685L39.2109 33.193L20.0696 21.9274L7.5332 14.5607L23.8537 5.14253C23.8636 5.13675 23.8938 5.11941 23.9403 5.11941Z" fill="white"/>
</svg>
