<svg width="99" height="58" viewBox="0 0 99 58" fill="none" xmlns="http://www.w3.org/2000/svg">
<rect width="99" height="58" rx="12" fill="#1E1F20"/>
<path fill-rule="evenodd" clip-rule="evenodd" d="M54.466 35C53.7546 36.0629 53.0003 37.1 51.8517 37.1171C50.7031 37.1429 50.3346 36.44 49.0317 36.44C47.7203 36.44 47.3174 37.1 46.2289 37.1429C45.106 37.1857 44.2574 36.0114 43.5374 34.9743C42.0717 32.8571 40.9489 28.9571 42.4574 26.3343C43.2031 25.0314 44.5403 24.2086 45.9889 24.1829C47.086 24.1657 48.1317 24.9286 48.8089 24.9286C49.4774 24.9286 50.746 24.0114 52.0746 24.1486C52.6317 24.1743 54.1917 24.3714 55.1946 25.8457C55.1174 25.8971 53.3346 26.9429 53.3517 29.1114C53.3774 31.7 55.6231 32.5657 55.6489 32.5743C55.6231 32.6343 55.2889 33.8086 54.466 35ZM49.5717 21.2857C50.1974 20.5743 51.2346 20.0343 52.0917 20C52.2031 21.0029 51.8003 22.0143 51.2003 22.7343C50.6089 23.4629 49.6317 24.0286 48.6717 23.9514C48.5431 22.9657 49.0231 21.9371 49.5717 21.2857Z" fill="white"/>
</svg>
