<svg width="99" height="58" viewBox="0 0 99 58" fill="none" xmlns="http://www.w3.org/2000/svg">
<rect x="1" y="1" width="97" height="56" rx="11" stroke="#8F92A1" stroke-opacity="0.4" stroke-width="2"/>
<path fill-rule="evenodd" clip-rule="evenodd" d="M58 27.9091H56.3636V26.2727H54.7273V27.9091H53.0909V29.5455H54.7273V31.1818H56.3636V29.5455H58M45.7273 27.9091V29.8727H49C48.8364 30.6909 48.0182 32.3273 45.7273 32.3273C43.7636 32.3273 42.2091 30.6909 42.2091 28.7273C42.2091 26.7636 43.7636 25.1273 45.7273 25.1273C46.8727 25.1273 47.6091 25.6182 48.0182 26.0273L49.5727 24.5545C48.5909 23.5727 47.2818 23 45.7273 23C42.5364 23 40 25.5364 40 28.7273C40 31.9182 42.5364 34.4545 45.7273 34.4545C49 34.4545 51.2091 32.1636 51.2091 28.8909C51.2091 28.4818 51.2091 28.2364 51.1273 27.9091H45.7273Z" fill="#1E1F20"/>
</svg>
