<svg width="78" height="24" viewBox="0 0 78 24" fill="none" xmlns="http://www.w3.org/2000/svg">
<path fill-rule="evenodd" clip-rule="evenodd" d="M31.5361 18.2571C32.6394 18.2571 33.5467 17.9939 34.2581 17.4674C34.9694 16.9409 35.325 16.2576 35.325 15.4175C35.325 14.779 35.1402 14.2666 34.7705 13.8801C34.4009 13.4936 33.9556 13.2248 33.4347 13.0736C32.9139 12.9224 32.3902 12.7963 31.8637 12.6955C31.3372 12.5947 30.8892 12.4547 30.5195 12.2755C30.1499 12.0962 29.965 11.8498 29.965 11.5362C29.965 11.2225 30.0882 10.9761 30.3347 10.7968C30.5811 10.6176 30.9284 10.528 31.3764 10.528C32.2726 10.528 32.7542 10.9201 32.8214 11.7042H35.241C35.1962 10.7744 34.8321 10.0379 34.1488 9.49466C33.4655 8.95138 32.5582 8.67974 31.4268 8.67974C30.2955 8.67974 29.3881 8.95418 28.7048 9.50306C28.0215 10.0519 27.6799 10.7296 27.6799 11.5362C27.6799 12.141 27.8647 12.6311 28.2344 13.0064C28.604 13.3816 29.0493 13.6421 29.5702 13.7877C30.091 13.9333 30.6147 14.0565 31.1412 14.1573C31.6677 14.2582 32.1157 14.401 32.4854 14.5858C32.855 14.7706 33.0399 15.0227 33.0399 15.3419C33.0399 15.6612 32.9055 15.9188 32.6366 16.1148C32.3678 16.3109 32.0149 16.4089 31.5781 16.4089C30.6707 16.4089 30.1723 16.0168 30.0826 15.2327H27.6631C27.7303 16.2072 28.1168 16.955 28.8225 17.4758C29.5282 17.9967 30.4327 18.2571 31.5361 18.2571ZM41.4746 18.2571C42.8412 18.2571 43.9865 17.8147 44.9107 16.9297C45.8348 16.0448 46.2969 14.8854 46.2969 13.4516C46.2969 12.0178 45.8376 10.8641 44.9191 9.99033C44.0005 9.1166 42.8608 8.67974 41.4998 8.67974C40.1388 8.67974 38.999 9.1166 38.0805 9.99033C37.1619 10.8641 36.7027 12.0178 36.7027 13.4516C36.7027 14.8854 37.1563 16.0448 38.0637 16.9297C38.971 17.8147 40.108 18.2571 41.4746 18.2571ZM41.4748 16.2576C40.8139 16.2576 40.2539 16.0168 39.7946 15.5351C39.3353 15.0535 39.1057 14.3646 39.1057 13.4684C39.1057 12.5723 39.3353 11.8834 39.7946 11.4017C40.2539 10.9201 40.8167 10.6792 41.4832 10.6792C42.1497 10.6792 42.7182 10.9201 43.1887 11.4017C43.6592 11.8834 43.8944 12.5695 43.8944 13.46C43.8944 14.3506 43.6564 15.0395 43.1803 15.5267C42.7042 16.014 42.1357 16.2576 41.4748 16.2576ZM52.1107 18.2571C53.2196 18.2571 54.1578 17.9715 54.9251 17.4002C55.6924 16.8289 56.2105 16.056 56.4793 15.0815H53.9253C53.6117 15.8656 53.0068 16.2576 52.1107 16.2576C51.4274 16.2576 50.8925 16.0084 50.506 15.5099C50.1196 15.0115 49.9263 14.331 49.9263 13.4684C49.9263 12.6059 50.1196 11.9254 50.506 11.4269C50.8925 10.9285 51.4274 10.6792 52.1107 10.6792C53.018 10.6792 53.6229 11.0657 53.9253 11.8386H56.4793C56.2217 10.8305 55.712 10.0519 54.9503 9.50306C54.1886 8.95418 53.242 8.67974 52.1107 8.67974C50.7553 8.67974 49.6519 9.1166 48.8006 9.99033C47.9492 10.8641 47.5236 12.0234 47.5236 13.4684C47.5236 14.9135 47.9492 16.0728 48.8006 16.9466C49.6519 17.8203 50.7553 18.2571 52.1107 18.2571ZM59.4452 7.89002C59.8429 7.89002 60.1817 7.75 60.4617 7.46996C60.7418 7.18992 60.8818 6.84827 60.8818 6.44501C60.8818 6.04175 60.7418 5.7001 60.4617 5.42006C60.1817 5.14002 59.8429 5 59.4452 5C59.0475 5 58.7087 5.14002 58.4286 5.42006C58.1486 5.7001 58.0086 6.04175 58.0086 6.44501C58.0086 6.84827 58.1486 7.18992 58.4286 7.46996C58.7087 7.75 59.0475 7.89002 59.4452 7.89002ZM60.6297 18.1227V8.81416H58.2605V18.1227H60.6297ZM66.8802 18.2571C68.1348 18.2571 69.1149 17.6915 69.8206 16.5601V18.1227H72.173V8.81416H69.8206V10.2592C69.1486 9.20622 68.174 8.67974 66.897 8.67974C65.62 8.67974 64.5671 9.125 63.7382 10.0155C62.9092 10.9061 62.4948 12.0514 62.4948 13.4516C62.4948 14.8518 62.9092 16.0056 63.7382 16.9129C64.5783 17.8091 65.6256 18.2571 66.8802 18.2571ZM67.3589 16.2072C66.7036 16.2072 66.1295 15.9608 65.6366 15.4679C65.1437 14.9751 64.8973 14.303 64.8973 13.4516C64.8973 12.6003 65.1409 11.9338 65.6282 11.4521C66.1155 10.9705 66.6896 10.7296 67.3505 10.7296C68.0114 10.7296 68.5882 10.9733 69.0811 11.4605C69.574 11.9478 69.8204 12.6171 69.8204 13.4684C69.8204 14.3198 69.574 14.9919 69.0811 15.4847C68.5882 15.9664 68.0142 16.2072 67.3589 16.2072ZM77.0623 18.1227V5.6889H74.6932V18.1227H77.0623Z" fill="white"/>
<path opacity="0.4" fill-rule="evenodd" clip-rule="evenodd" d="M11.4181 20.6132L11.4138 13.5897L17.4463 17.1345L11.4181 20.6132ZM10.3388 21.2031H10.3943C10.3876 21.206 10.3788 21.2089 10.366 21.2089C10.3564 21.2089 10.3475 21.2066 10.3388 21.2031ZM2.18298 16.4831C2.15988 16.4696 2.14551 16.4446 2.14551 16.4178L2.15123 8.14673L9.26789 12.3286L9.2729 20.5877L2.18298 16.4831ZM10.3414 2.22814C10.3458 2.22564 10.3589 2.21812 10.379 2.21812C10.3924 2.21812 10.405 2.22148 10.4166 2.22821L17.4468 6.29833L10.3403 10.4685L3.26587 6.31136L10.3414 2.22814ZM12.4602 11.7141L18.5989 8.1119L18.5939 15.3185L12.4602 11.7141ZM19.6361 5.08469L11.4906 0.36886C11.1469 0.1699 10.7629 0.0703125 10.379 0.0703125C9.99617 0.0703125 9.61336 0.169255 9.27017 0.367356L1.11816 5.07173C0.430789 5.46836 0.00708027 6.20198 0.00650817 6.99618L5.79974e-07 16.4163C-0.000571516 17.2106 0.422136 17.9448 1.10887 18.3423L9.25437 23.058C9.5982 23.2572 9.98208 23.3566 10.366 23.3566C10.7488 23.3566 11.1316 23.2577 11.4748 23.0597L19.6268 18.3552C20.3141 17.9586 20.7379 17.225 20.7385 16.4308L20.7451 7.01064C20.7456 6.21645 20.3229 5.48225 19.6361 5.08469Z" fill="white"/>
<path fill-rule="evenodd" clip-rule="evenodd" d="M10.366 21.2089C10.3565 21.2089 10.3475 21.2066 10.3388 21.2031H10.3943C10.3876 21.206 10.3788 21.2089 10.366 21.2089ZM10.3791 2.21813C10.3925 2.21813 10.4051 2.2215 10.4167 2.22823L13.0756 3.76757L20.7442 8.16717L20.7451 7.01064C20.7456 6.21637 20.3229 5.48225 19.6361 5.08461L11.4907 0.36886C11.1469 0.169828 10.7629 0.0703125 10.3791 0.0703125C9.99624 0.0703125 9.61343 0.169255 9.27017 0.367356L1.11816 5.07173C0.477701 5.4413 0.0665781 6.10354 0.0129441 6.83473L13.018 14.5324L16.8694 16.7955L17.4462 17.1345L14.2789 18.9623V18.9686L12.2503 20.1393L11.4185 20.6303L11.3947 20.6295C11.0724 20.7984 10.7194 20.8838 10.366 20.8838C9.98208 20.8838 9.5982 20.7842 9.25437 20.5851L6.19809 18.8158V18.8067L0.000858588 15.2172L4.44113e-07 16.4163C-0.00050014 17.2105 0.422207 17.9447 1.10894 18.3423L9.25437 23.058C9.5982 23.2571 9.98208 23.3566 10.366 23.3566C10.7488 23.3566 11.1317 23.2576 11.4748 23.0597L19.6268 18.3552C20.2691 17.9846 20.6809 17.3199 20.7327 16.5864L18.5697 15.3324L16.9996 14.3892L8.70101 9.50512L3.26595 6.31131L10.3416 2.22816C10.3459 2.22565 10.3589 2.21813 10.3791 2.21813Z" fill="white"/>
</svg>
