<svg width="18" height="18" viewBox="0 0 18 18" fill="none" xmlns="http://www.w3.org/2000/svg">
<path fill-rule="evenodd" clip-rule="evenodd" d="M14.466 15C13.7546 16.0629 13.0003 17.1 11.8517 17.1171C10.7031 17.1429 10.3346 16.44 9.03172 16.44C7.72029 16.44 7.31743 17.1 6.22886 17.1429C5.106 17.1857 4.25743 16.0114 3.53743 14.9743C2.07172 12.8571 0.94886 8.95714 2.45743 6.33429C3.20315 5.03143 4.54029 4.20857 5.98886 4.18286C7.086 4.16571 8.13172 4.92857 8.80886 4.92857C9.47743 4.92857 10.746 4.01143 12.0746 4.14857C12.6317 4.17429 14.1917 4.37143 15.1946 5.84571C15.1174 5.89714 13.3346 6.94286 13.3517 9.11143C13.3774 11.7 15.6231 12.5657 15.6489 12.5743C15.6231 12.6343 15.2889 13.8086 14.466 15ZM9.57172 1.28571C10.1974 0.574286 11.2346 0.0342857 12.0917 0C12.2031 1.00286 11.8003 2.01429 11.2003 2.73429C10.6089 3.46286 9.63172 4.02857 8.67172 3.95143C8.54315 2.96571 9.02315 1.93714 9.57172 1.28571Z" fill="white"/>
</svg>
