<svg width="18" height="18" viewBox="0 0 18 18" fill="none" xmlns="http://www.w3.org/2000/svg">
<path fill-rule="evenodd" clip-rule="evenodd" d="M9 6.09197C7.64439 6.09197 6.54545 7.19091 6.54545 8.54652C6.54545 9.90213 7.64439 11.0011 9 11.0011C10.3556 11.0011 11.4545 9.90213 11.4545 8.54652C11.4545 7.19091 10.3556 6.09197 9 6.09197ZM9 12.6374C6.74065 12.6374 4.90909 10.8059 4.90909 8.54652C4.90909 6.28717 6.74065 4.45561 9 4.45561C11.2593 4.45561 13.0909 6.28717 13.0909 8.54652C13.0909 10.8059 11.2593 12.6374 9 12.6374ZM9 2.41016C4.90909 2.41016 1.41545 4.9547 0 8.54652C1.41545 12.1383 4.90909 14.6829 9 14.6829C13.0909 14.6829 16.5845 12.1383 18 8.54652C16.5845 4.9547 13.0909 2.41016 9 2.41016Z" fill="#8F92A1"/>
<mask id="mask0_507_3213" style="mask-type:alpha" maskUnits="userSpaceOnUse" x="0" y="2" width="18" height="13">
<path fill-rule="evenodd" clip-rule="evenodd" d="M9 6.09197C7.64439 6.09197 6.54545 7.19091 6.54545 8.54652C6.54545 9.90213 7.64439 11.0011 9 11.0011C10.3556 11.0011 11.4545 9.90213 11.4545 8.54652C11.4545 7.19091 10.3556 6.09197 9 6.09197ZM9 12.6374C6.74065 12.6374 4.90909 10.8059 4.90909 8.54652C4.90909 6.28717 6.74065 4.45561 9 4.45561C11.2593 4.45561 13.0909 6.28717 13.0909 8.54652C13.0909 10.8059 11.2593 12.6374 9 12.6374ZM9 2.41016C4.90909 2.41016 1.41545 4.9547 0 8.54652C1.41545 12.1383 4.90909 14.6829 9 14.6829C13.0909 14.6829 16.5845 12.1383 18 8.54652C16.5845 4.9547 13.0909 2.41016 9 2.41016Z" fill="white"/>
</mask>
<g mask="url(#mask0_507_3213)">
</g>
</svg>
