<svg width="165" height="50" viewBox="0 0 165 50" fill="none" xmlns="http://www.w3.org/2000/svg">
<path fill-rule="evenodd" clip-rule="evenodd" d="M67.2475 38.9933C69.6004 38.9933 71.5352 38.4311 73.052 37.3067C74.5688 36.1823 75.3271 34.7229 75.3271 32.9287C75.3271 31.565 74.933 30.4705 74.1448 29.6451C73.3565 28.8198 72.407 28.2456 71.2963 27.9226C70.1856 27.5997 69.0689 27.3305 67.9462 27.1152C66.8235 26.8999 65.8681 26.6009 65.0798 26.2181C64.2916 25.8353 63.8974 25.309 63.8974 24.6391C63.8974 23.9693 64.1602 23.4429 64.6857 23.0602C65.2112 22.6774 65.9517 22.486 66.9072 22.486C68.8181 22.486 69.8452 23.3233 69.9885 24.998V24.998H75.148C75.0525 23.0123 74.2761 21.4393 72.8191 20.279C71.362 19.1187 69.4272 18.5386 67.0146 18.5386C64.6021 18.5386 62.6673 19.1247 61.2102 20.297C59.7531 21.4692 59.0246 22.9166 59.0246 24.6391C59.0246 25.931 59.4187 26.9777 60.207 27.7791C60.9952 28.5805 61.9447 29.1368 63.0554 29.4478C64.1662 29.7588 65.2829 30.0219 66.4055 30.2373C67.5282 30.4526 68.4837 30.7576 69.2719 31.1523C70.0602 31.5471 70.4543 32.0854 70.4543 32.7672C70.4543 33.449 70.1677 33.9992 69.5944 34.4179C69.0211 34.8366 68.2687 35.0459 67.3371 35.0459C65.4023 35.0459 64.3393 34.2086 64.1483 32.5339V32.5339H58.9888C59.1321 34.6153 59.9562 36.2122 61.461 37.3246C62.9659 38.4371 64.8947 38.9933 67.2475 38.9933ZM88.4405 38.9933C91.3547 38.9933 93.7971 38.0483 95.7677 36.1584C97.7383 34.2684 98.7237 31.7923 98.7237 28.7301C98.7237 25.6678 97.7443 23.2037 95.7856 21.3377C93.8269 19.4716 91.3965 18.5386 88.4943 18.5386C85.592 18.5386 83.1616 19.4716 81.2029 21.3377C79.2442 23.2037 78.2649 25.6678 78.2649 28.7301C78.2649 31.7923 79.2323 34.2684 81.1671 36.1584C83.1019 38.0483 85.5264 38.9933 88.4405 38.9933ZM88.4411 34.7229C87.0318 34.7229 85.8375 34.2086 84.8582 33.1799C83.8788 32.1511 83.3891 30.6798 83.3891 28.766C83.3891 26.8521 83.8788 25.3808 84.8582 24.352C85.8375 23.3233 87.0378 22.809 88.4591 22.809C89.8803 22.809 91.0925 23.3233 92.0958 24.352C93.099 25.3808 93.6006 26.8461 93.6006 28.748C93.6006 30.6499 93.093 32.1212 92.0779 33.1619C91.0627 34.2026 89.8504 34.7229 88.4411 34.7229ZM111.121 38.9933C113.486 38.9933 115.486 38.3832 117.123 37.1631C118.759 35.943 119.864 34.2923 120.437 32.211V32.211H114.991C114.322 33.8856 113.032 34.7229 111.121 34.7229C109.664 34.7229 108.523 34.1906 107.699 33.126C106.875 32.0614 106.463 30.6081 106.463 28.7659C106.463 26.9238 106.875 25.4705 107.699 24.4059C108.523 23.3413 109.664 22.809 111.121 22.809C113.056 22.809 114.346 23.6343 114.991 25.2851V25.2851H120.437C119.887 23.1319 118.801 21.4692 117.176 20.297C115.552 19.1247 113.534 18.5386 111.121 18.5386C108.231 18.5386 105.878 19.4716 104.063 21.3377C102.247 23.2037 101.34 25.6798 101.34 28.7659C101.34 31.8521 102.247 34.3282 104.063 36.1942C105.878 38.0603 108.231 38.9933 111.121 38.9933ZM126.761 16.852C127.609 16.852 128.332 16.5529 128.929 15.9548C129.526 15.3568 129.825 14.6271 129.825 13.7658C129.825 12.9046 129.526 12.1749 128.929 11.5768C128.332 10.9787 127.609 10.6797 126.761 10.6797C125.913 10.6797 125.191 10.9787 124.594 11.5768C123.996 12.1749 123.698 12.9046 123.698 13.7658C123.698 14.6271 123.996 15.3568 124.594 15.9548C125.191 16.5529 125.913 16.852 126.761 16.852ZM129.287 38.7062V18.8257H124.235V38.7062H129.287ZM142.616 38.9933C145.291 38.9933 147.381 37.7852 148.886 35.3689V35.3689V38.7062H153.902V18.8257H148.886V21.9118C147.453 19.663 145.375 18.5386 142.652 18.5386C139.929 18.5386 137.683 19.4896 135.916 21.3915C134.148 23.2934 133.264 25.7396 133.264 28.7301C133.264 31.7205 134.148 34.1847 135.916 36.1225C137.707 38.0364 139.941 38.9933 142.616 38.9933ZM143.637 34.6153C142.239 34.6153 141.015 34.089 139.964 33.0363C138.913 31.9837 138.387 30.5483 138.387 28.7301C138.387 26.9119 138.907 25.4884 139.946 24.4597C140.985 23.431 142.209 22.9166 143.619 22.9166C145.028 22.9166 146.258 23.437 147.309 24.4776C148.36 25.5183 148.886 26.9478 148.886 28.766C148.886 30.5841 148.36 32.0196 147.309 33.0722C146.258 34.1009 145.034 34.6153 143.637 34.6153ZM164.328 38.7062V12.151H159.276V38.7062H164.328Z" fill="white"/>
<path opacity="0.4" fill-rule="evenodd" clip-rule="evenodd" d="M24.3482 44.0264L24.3389 29.026L37.2026 36.5967L24.3482 44.0264ZM22.0466 45.2863H22.1649C22.1506 45.2924 22.132 45.2985 22.1045 45.2985C22.0841 45.2985 22.065 45.2936 22.0466 45.2863V45.2863ZM4.65502 35.2055C4.60576 35.1767 4.57511 35.1234 4.57511 35.0662L4.58731 17.4014L19.763 26.3327L19.7736 43.9718L4.65502 35.2055ZM22.0522 4.76087C22.0615 4.75552 22.0894 4.73947 22.1322 4.73947C22.1609 4.73947 22.1877 4.74665 22.2124 4.76103L37.2039 13.4537L22.0497 22.36L6.96418 13.4815L22.0522 4.76087ZM26.5703 25.0202L39.6606 17.327L39.6499 32.7183L26.5703 25.0202ZM41.8723 10.8617L24.5028 0.789958C23.7697 0.365035 22.951 0.152344 22.1324 0.152344C21.316 0.152344 20.4997 0.363659 19.7678 0.786747L2.38438 10.834C0.91862 11.6811 0.0150981 13.2479 0.0138781 14.9441L1.23674e-06 35.0629C-0.00121871 36.7592 0.900168 38.3273 2.36456 39.1763L19.7341 49.2478C20.4673 49.6731 21.2859 49.8855 22.1045 49.8855C22.9209 49.8855 23.7372 49.6742 24.4691 49.2513L41.8525 39.2039C43.3181 38.3568 44.2218 36.7901 44.223 35.0938L44.237 14.975C44.2381 13.2788 43.3367 11.7108 41.8723 10.8617V10.8617Z" fill="white"/>
<path fill-rule="evenodd" clip-rule="evenodd" d="M22.1045 45.2985C22.0843 45.2985 22.0652 45.2936 22.0466 45.2863H22.1649C22.1507 45.2924 22.132 45.2985 22.1045 45.2985M22.1326 4.7395C22.1611 4.7395 22.1881 4.74668 22.2126 4.76106L27.8826 8.04867L44.2352 17.445L44.237 14.975C44.2381 13.2786 43.3367 11.7108 41.8723 10.8615L24.5029 0.789958C23.7697 0.364882 22.951 0.152344 22.1326 0.152344C21.3161 0.152344 20.4998 0.363659 19.7678 0.786747L2.38438 10.834C1.01866 11.6233 0.141972 13.0377 0.0276022 14.5993L27.7597 31.0393L35.9725 35.8728L37.2025 36.5968L30.4486 40.5005V40.5138L26.1227 43.0141L24.3489 44.0629L24.2981 44.0612C23.611 44.4218 22.8581 44.6042 22.1045 44.6042C21.2859 44.6042 20.4673 44.3915 19.7341 43.9664L13.2169 40.1875V40.1681L0.00183086 32.5019L9.47033e-07 35.0629C-0.0010665 36.7591 0.90032 38.3271 2.36471 39.1763L19.7341 49.2477C20.4673 49.673 21.2859 49.8855 22.1045 49.8855C22.9209 49.8855 23.7374 49.674 24.4691 49.2513L41.8525 39.2039C43.222 38.4124 44.1003 36.9927 44.2107 35.4262L39.5982 32.7479L36.2501 30.7335L18.5541 20.3025L6.96436 13.4814L22.0525 4.76091C22.0616 4.75555 22.0895 4.7395 22.1326 4.7395" fill="white"/>
</svg>
