<svg width="113" height="41" viewBox="0 0 113 41" fill="none" xmlns="http://www.w3.org/2000/svg">
<path fill-rule="evenodd" clip-rule="evenodd" d="M51.8573 29.1059C53.3285 29.1059 54.5382 28.7549 55.4866 28.0529C56.4351 27.351 56.9093 26.4399 56.9093 25.3197C56.9093 24.4684 56.6628 23.7851 56.1699 23.2698C55.6771 22.7545 55.0834 22.3961 54.3889 22.1945C53.6944 21.9928 52.9961 21.8248 52.2942 21.6904C51.5922 21.556 50.9948 21.3693 50.5019 21.1303C50.009 20.8913 49.7626 20.5628 49.7626 20.1446C49.7626 19.7264 49.9269 19.3978 50.2555 19.1588C50.5841 18.9199 51.0471 18.8004 51.6445 18.8004C52.8393 18.8004 53.4816 19.3231 53.5712 20.3686V20.3686H56.7972C56.7375 19.1289 56.2521 18.1469 55.341 17.4226C54.43 16.6982 53.2202 16.336 51.7117 16.336C50.2032 16.336 48.9934 16.7019 48.0824 17.4338C47.1713 18.1656 46.7158 19.0692 46.7158 20.1446C46.7158 20.9511 46.9622 21.6045 47.4551 22.1049C47.9479 22.6052 48.5416 22.9524 49.2361 23.1466C49.9306 23.3408 50.6289 23.5051 51.3308 23.6395C52.0328 23.7739 52.6302 23.9643 53.1231 24.2108C53.616 24.4572 53.8624 24.7932 53.8624 25.2189C53.8624 25.6446 53.6832 25.9881 53.3247 26.2495C52.9663 26.5108 52.4958 26.6415 51.9133 26.6415C50.7035 26.6415 50.0389 26.1188 49.9194 25.0733V25.0733H46.6934C46.783 26.3727 47.2982 27.3696 48.2392 28.0641C49.1801 28.7586 50.3862 29.1059 51.8573 29.1059ZM65.1086 29.1059C66.9308 29.1059 68.4579 28.5159 69.6901 27.336C70.9223 26.1561 71.5384 24.6103 71.5384 22.6985C71.5384 20.7868 70.926 19.2484 69.7013 18.0835C68.4766 16.9185 66.9569 16.336 65.1422 16.336C63.3276 16.336 61.8079 16.9185 60.5832 18.0835C59.3585 19.2484 58.7461 20.7868 58.7461 22.6985C58.7461 24.6103 59.351 26.1561 60.5608 27.336C61.7706 28.5159 63.2865 29.1059 65.1086 29.1059ZM65.109 26.4399C64.2278 26.4399 63.4811 26.1188 62.8687 25.4765C62.2564 24.8343 61.9502 23.9158 61.9502 22.7209C61.9502 21.5261 62.2564 20.6076 62.8687 19.9653C63.4811 19.3231 64.2316 19.002 65.1202 19.002C66.0089 19.002 66.7669 19.3231 67.3942 19.9653C68.0215 20.6076 68.3351 21.5224 68.3351 22.7097C68.3351 23.8971 68.0177 24.8156 67.383 25.4653C66.7482 26.115 65.9902 26.4399 65.109 26.4399ZM79.2901 29.1059C80.7687 29.1059 82.0195 28.725 83.0426 27.9633C84.0657 27.2016 84.7565 26.171 85.1149 24.8717V24.8717H81.7096C81.2914 25.9171 80.4849 26.4399 79.2901 26.4399C78.379 26.4399 77.6658 26.1076 77.1506 25.4429C76.6353 24.7783 76.3776 23.871 76.3776 22.7209C76.3776 21.5709 76.6353 20.6636 77.1506 19.9989C77.6658 19.3343 78.379 19.002 79.2901 19.002C80.4998 19.002 81.3064 19.5173 81.7096 20.5478V20.5478H85.1149C84.7714 19.2036 84.0918 18.1656 83.0762 17.4338C82.0606 16.7019 80.7986 16.336 79.2901 16.336C77.4829 16.336 76.0117 16.9185 74.8766 18.0835C73.7415 19.2484 73.174 20.7943 73.174 22.7209C73.174 24.6476 73.7415 26.1934 74.8766 27.3584C76.0117 28.5234 77.4829 29.1059 79.2901 29.1059ZM89.0696 15.2831C89.5998 15.2831 90.0516 15.0964 90.425 14.723C90.7984 14.3496 90.9851 13.894 90.9851 13.3564C90.9851 12.8187 90.7984 12.3632 90.425 11.9898C90.0516 11.6164 89.5998 11.4297 89.0696 11.4297C88.5394 11.4297 88.0876 11.6164 87.7142 11.9898C87.3408 12.3632 87.1541 12.8187 87.1541 13.3564C87.1541 13.894 87.3408 14.3496 87.7142 14.723C88.0876 15.0964 88.5394 15.2831 89.0696 15.2831ZM90.6489 28.9266V16.5152H87.49V28.9266H90.6489ZM98.9829 29.1059C100.656 29.1059 101.963 28.3516 102.903 26.8431V26.8431V28.9267H106.04V16.5152H102.903V18.4419C102.007 17.038 100.708 16.336 99.0053 16.336C97.3027 16.336 95.8987 16.9297 94.7935 18.1171C93.6883 19.3044 93.1356 20.8316 93.1356 22.6985C93.1356 24.5655 93.6883 26.1038 94.7935 27.3136C95.9137 28.5085 97.3101 29.1059 98.9829 29.1059ZM99.621 26.3727C98.7473 26.3727 97.9819 26.0441 97.3247 25.3869C96.6675 24.7298 96.339 23.8336 96.339 22.6985C96.339 21.5634 96.6638 20.6748 97.3135 20.0325C97.9632 19.3903 98.7286 19.0692 99.6098 19.0692C100.491 19.0692 101.26 19.3941 101.917 20.0437C102.575 20.6934 102.903 21.5858 102.903 22.7209C102.903 23.856 102.575 24.7522 101.917 25.4093C101.26 26.0516 100.495 26.3727 99.621 26.3727ZM112.559 28.9267V12.3482H109.4V28.9267H112.559Z" fill="white"/>
<path opacity="0.4" fill-rule="evenodd" clip-rule="evenodd" d="M19.7527 36.1018L19.7451 23.8015L30.1809 30.0095L19.7527 36.1018ZM17.8855 37.1347H17.9815C17.9699 37.1397 17.9548 37.1447 17.9325 37.1447C17.9159 37.1447 17.9005 37.1407 17.8855 37.1347V37.1347ZM3.77633 28.8685C3.73637 28.8449 3.71151 28.8012 3.71151 28.7543L3.72141 14.2691L16.0328 21.5928L16.0414 36.0569L3.77633 28.8685ZM17.89 3.90404C17.8975 3.89965 17.9202 3.88648 17.9549 3.88648C17.9782 3.88648 18 3.89237 18.02 3.90416L30.1819 11.0321L17.888 18.3353L5.64974 11.055L17.89 3.90404ZM21.5554 20.5167L32.175 14.2082L32.1663 26.829L21.5554 20.5167ZM33.9693 8.90665L19.8781 0.647844C19.2834 0.299407 18.6192 0.125 17.9551 0.125C17.2927 0.125 16.6305 0.298278 16.0368 0.645211L1.93435 8.88395C0.745238 9.57857 0.0122484 10.8634 0.0112587 12.2542L1.00332e-06 28.7516C-0.000988687 30.1426 0.730269 31.4284 1.91827 32.1247L16.0095 40.3832C16.6043 40.732 17.2684 40.9062 17.9325 40.9062C18.5948 40.9062 19.257 40.7329 19.8507 40.3861L33.9532 32.1473C35.1422 31.4526 35.8753 30.168 35.8763 28.777L35.8877 12.2796C35.8885 10.8887 35.1573 9.60289 33.9693 8.90665V8.90665Z" fill="white"/>
<path fill-rule="evenodd" clip-rule="evenodd" d="M17.9325 37.1447C17.9161 37.1447 17.9006 37.1407 17.8855 37.1347H17.9815C17.97 37.1397 17.9548 37.1447 17.9325 37.1447M17.9552 3.88647C17.9784 3.88647 18.0002 3.89236 18.0202 3.90415L22.62 6.59999L35.8862 14.305L35.8877 12.2796C35.8885 10.8886 35.1573 9.60289 33.9693 8.90652L19.8782 0.647844C19.2834 0.299281 18.6192 0.125 17.9552 0.125C17.2929 0.125 16.6306 0.298278 16.0368 0.645211L1.93435 8.88395C0.826392 9.53118 0.115176 10.691 0.0223925 11.9715L22.5203 25.4523L29.183 29.4158L30.1809 30.0095L24.7017 33.2105V33.2214L21.1922 35.2716L19.7532 36.1316L19.712 36.1303C19.1546 36.4259 18.5438 36.5755 17.9325 36.5755C17.2684 36.5755 16.6043 36.4011 16.0095 36.0525L10.7223 32.9538V32.9379L0.0014853 26.6516L7.68288e-07 28.7516C-0.000865211 30.1425 0.730392 31.4283 1.91839 32.1247L16.0095 40.3832C16.6043 40.7319 17.2684 40.9062 17.9325 40.9062C18.5948 40.9062 19.2572 40.7328 19.8507 40.3861L33.9532 32.1472C35.0642 31.4983 35.7767 30.3341 35.8663 29.0496L32.1244 26.8534L29.4082 25.2016L15.0522 16.6481L5.6499 11.0548L17.8903 3.90402C17.8977 3.89963 17.9203 3.88647 17.9552 3.88647" fill="white"/>
</svg>
